<svg width="196" height="196" viewBox="0 0 196 196" fill="none" xmlns="http://www.w3.org/2000/svg">
<rect width="196" height="196" fill="#140F0F"/>
<path d="M130.682 81.4607C122.918 78.8728 116.826 72.7806 114.238 65.0169L99.7466 21.5419C99.1388 19.7185 96.5597 19.7185 95.9519 21.5419L81.4602 65.0169C78.8723 72.7806 72.7801 78.8728 65.0164 81.4607L21.5414 95.9524C19.718 96.5602 19.718 99.1393 21.5414 99.7471L65.0164 114.239C72.7801 116.827 78.8723 122.919 81.4602 130.683L95.9519 174.158C96.5597 175.981 99.1388 175.981 99.7466 174.158L114.238 130.683C116.826 122.919 122.918 116.827 130.682 114.239L174.157 99.7471C175.981 99.1393 175.981 96.5602 174.157 95.9524L130.682 81.4607Z" fill="#FD7B32"/>
<path d="M132.654 109.477C128.995 102.158 128.995 93.5419 132.654 86.2222L153.149 45.2335C154.008 43.5144 152.185 41.6907 150.465 42.5503L109.477 63.0446C102.157 66.7044 93.5414 66.7044 86.2217 63.0446L45.2331 42.5503C43.5139 41.6907 41.6902 43.5144 42.5498 45.2335L63.0441 86.2222C66.7039 93.5419 66.7039 102.158 63.0441 109.477L42.5498 150.466C41.6902 152.185 43.5139 154.009 45.2331 153.149L86.2217 132.655C93.5414 128.995 102.157 128.995 109.477 132.655L150.465 153.149C152.185 154.009 154.008 152.185 153.149 150.466L132.654 109.477Z" fill="#140F0F"/>
<path d="M132.654 109.477C128.995 102.158 128.995 93.5419 132.654 86.2222L153.149 45.2335C154.008 43.5144 152.185 41.6907 150.465 42.5503L109.477 63.0446C102.157 66.7044 93.5414 66.7044 86.2217 63.0446L45.2331 42.5503C43.5139 41.6907 41.6902 43.5144 42.5498 45.2335L63.0441 86.2222C66.7039 93.5419 66.7039 102.158 63.0441 109.477L42.5498 150.466C41.6902 152.185 43.5139 154.009 45.2331 153.149L86.2217 132.655C93.5414 128.995 102.157 128.995 109.477 132.655L150.465 153.149C152.185 154.009 154.008 152.185 153.149 150.466L132.654 109.477Z" fill="white"/>
</svg>
