<svg width="156" height="156" viewBox="0 0 156 156" fill="none" xmlns="http://www.w3.org/2000/svg">
<path d="M110.68 61.4615C102.916 58.8735 96.8243 52.7813 94.2364 45.0176L79.7447 1.54259C79.1369 -0.280798 76.5577 -0.2808 75.95 1.54259L61.4583 45.0176C58.8704 52.7813 52.7782 58.8735 45.0144 61.4614L1.53942 75.9531C-0.283972 76.5609 -0.283974 79.1401 1.53942 79.7479L45.0144 94.2395C52.7782 96.8274 58.8704 102.92 61.4583 110.683L75.95 154.158C76.5577 155.982 79.1369 155.982 79.7447 154.158L94.2364 110.683C96.8243 102.92 102.916 96.8274 110.68 94.2395L154.155 79.7479C155.979 79.1401 155.979 76.5609 154.155 75.9531L110.68 61.4615Z" fill="#FD7B32"/>
</svg>
