<svg width="157" height="156" viewBox="0 0 157 156" fill="none" xmlns="http://www.w3.org/2000/svg">
<path d="M111.349 61.4606C103.585 58.8727 97.4929 52.7805 94.905 45.0167L80.4133 1.54172C79.8055 -0.281676 77.2264 -0.281677 76.6186 1.54172L62.1269 45.0167C59.539 52.7805 53.4468 58.8727 45.6831 61.4606L2.20806 75.9522C0.384668 76.56 0.384666 79.1392 2.20806 79.747L45.6831 94.2386C53.4468 96.8266 59.539 102.919 62.1269 110.682L76.6186 154.158C77.2264 155.981 79.8055 155.981 80.4133 154.158L94.905 110.682C97.4929 102.919 103.585 96.8266 111.349 94.2386L154.824 79.747C156.647 79.1392 156.647 76.56 154.824 75.9522L111.349 61.4606Z" fill="#140F0F"/>
<path d="M111.349 61.4606C103.585 58.8727 97.4929 52.7805 94.905 45.0167L80.4133 1.54172C79.8055 -0.281676 77.2264 -0.281677 76.6186 1.54172L62.1269 45.0167C59.539 52.7805 53.4468 58.8727 45.6831 61.4606L2.20806 75.9522C0.384668 76.56 0.384666 79.1392 2.20806 79.747L45.6831 94.2386C53.4468 96.8266 59.539 102.919 62.1269 110.682L76.6186 154.158C77.2264 155.981 79.8055 155.981 80.4133 154.158L94.905 110.682C97.4929 102.919 103.585 96.8266 111.349 94.2386L154.824 79.747C156.647 79.1392 156.647 76.56 154.824 75.9522L111.349 61.4606Z" fill="white"/>
</svg>
