<svg width="33" height="26" viewBox="0 0 33 26" fill="none" xmlns="http://www.w3.org/2000/svg">
<path d="M2.30469 12.0117C2.61719 11.7513 3.14453 11.3411 3.88672 10.7812C4.62891 10.2214 5.48177 9.58333 6.44531 8.86719C7.40885 8.15104 8.42448 7.38932 9.49219 6.58203C10.5469 5.77474 11.5495 5.00651 12.5 4.27734C13.4505 3.53516 14.2839 2.86458 15 2.26562C15.7161 1.65365 16.2109 1.1849 16.4844 0.859375C16.5755 0.820313 16.6211 0.742188 16.6211 0.625C16.6211 0.494792 16.5885 0.384115 16.5234 0.292969C16.4453 0.201823 16.3802 0.130208 16.3281 0.078125C16.224 0.0260417 16.1198 9.10654e-09 16.0156 0C15.9896 -2.27663e-09 15.9701 0.00651041 15.957 0.0195312C15.944 0.0325521 15.9049 0.0520833 15.8398 0.078125C14.5117 1.10677 13.2487 2.05078 12.0508 2.91016C10.8529 3.75651 9.67448 4.60937 8.51563 5.46875C7.34375 6.3151 6.16537 7.20703 4.98047 8.14453C3.79557 9.08203 2.55859 10.1497 1.26953 11.3477C0.891927 11.6471 0.585938 11.9076 0.351563 12.1289C0.117188 12.3372 1.13868e-08 12.5065 0 12.6367C-1.47945e-08 12.806 0.0455729 12.9102 0.136719 12.9492C1.42578 13.9648 2.70182 15.013 3.96484 16.0937C5.21484 17.1745 6.4974 18.2617 7.8125 19.3555C9.1276 20.4492 10.4948 21.5365 11.9141 22.6172C13.3203 23.6849 14.8242 24.7201 16.4258 25.7227C16.6081 25.8268 16.7969 25.7943 16.9922 25.625C17.1745 25.4427 17.3307 25.2474 17.4609 25.0391C17.526 24.9609 17.5651 24.8633 17.5781 24.7461C17.5781 24.6289 17.5846 24.4922 17.5977 24.3359V24.0625C16.2956 23.112 14.987 22.168 13.6719 21.2305C12.3437 20.2799 11.0352 19.3099 9.74609 18.3203C8.45703 17.3307 7.1875 16.3151 5.9375 15.2734C4.6875 14.2318 3.47656 13.1445 2.30469 12.0117Z" fill="white"/>
<path d="M3.14844 13.1836C3.03125 13.1836 2.92709 13.1445 2.83594 13.0664C2.74479 12.9753 2.69922 12.8255 2.69922 12.6172C2.69922 12.4089 2.72526 12.2656 2.77735 12.1875C2.84245 12.1094 2.9336 12.0703 3.05078 12.0703C4.33985 12.0703 5.62891 12.0898 6.91797 12.1289C8.20703 12.168 9.50261 12.1875 10.8047 12.1875C11.4688 12.1875 12.1198 12.1745 12.7578 12.1484C13.3958 12.1224 14.0469 12.0964 14.7109 12.0703C14.8411 12.0703 14.9518 12.1029 15.043 12.168C15.1341 12.2331 15.1797 12.3698 15.1797 12.5781C15.1797 12.6953 15.1211 12.8255 15.0039 12.9688C14.8867 13.112 14.7891 13.1836 14.7109 13.1836C13.4219 13.1836 12.1393 13.1771 10.8633 13.1641C9.58724 13.151 8.29818 13.1445 6.9961 13.1445C6.34505 13.1445 5.70052 13.1445 5.0625 13.1445C4.4375 13.1445 3.79948 13.1576 3.14844 13.1836Z" fill="white"/>
<path d="M14.1484 13.1836C14.0313 13.1836 13.9271 13.1445 13.8359 13.0664C13.7448 12.9753 13.6992 12.8255 13.6992 12.6172C13.6992 12.4089 13.7253 12.2656 13.7773 12.1875C13.8425 12.1094 13.9336 12.0703 14.0508 12.0703C15.3398 12.0703 16.6289 12.0898 17.918 12.1289C19.207 12.168 20.5026 12.1875 21.8047 12.1875C22.4688 12.1875 23.1198 12.1745 23.7578 12.1484C24.3958 12.1224 25.0469 12.0964 25.7109 12.0703C25.8411 12.0703 25.9518 12.1029 26.043 12.168C26.1341 12.2331 26.1797 12.3698 26.1797 12.5781C26.1797 12.6953 26.1211 12.8255 26.0039 12.9688C25.8867 13.112 25.7891 13.1836 25.7109 13.1836C24.4219 13.1836 23.1393 13.1771 21.8633 13.1641C20.5872 13.151 19.2982 13.1445 17.9961 13.1445C17.3451 13.1445 16.7005 13.1445 16.0625 13.1445C15.4375 13.1445 14.7995 13.1576 14.1484 13.1836Z" fill="white"/>
<path d="M20.1484 13.1836C20.0313 13.1836 19.9271 13.1445 19.8359 13.0664C19.7448 12.9753 19.6992 12.8255 19.6992 12.6172C19.6992 12.4089 19.7253 12.2656 19.7773 12.1875C19.8424 12.1094 19.9336 12.0703 20.0508 12.0703C21.3398 12.0703 22.6289 12.0898 23.918 12.1289C25.207 12.168 26.5026 12.1875 27.8047 12.1875C28.4688 12.1875 29.1198 12.1745 29.7578 12.1484C30.3958 12.1224 31.0469 12.0964 31.7109 12.0703C31.8411 12.0703 31.9518 12.1029 32.043 12.168C32.1341 12.2331 32.1797 12.3698 32.1797 12.5781C32.1797 12.6953 32.1211 12.8255 32.0039 12.9688C31.8867 13.112 31.7891 13.1836 31.7109 13.1836C30.4219 13.1836 29.1393 13.1771 27.8633 13.1641C26.5872 13.151 25.2982 13.1445 23.9961 13.1445C23.3451 13.1445 22.7005 13.1445 22.0625 13.1445C21.4375 13.1445 20.7995 13.1576 20.1484 13.1836Z" fill="white"/>
</svg>
