<svg width="33" height="26" viewBox="0 0 33 26" fill="none" xmlns="http://www.w3.org/2000/svg">
<path d="M29.875 12.0117C29.5625 11.7513 29.0352 11.3411 28.293 10.7812C27.5508 10.2214 26.6979 9.58333 25.7344 8.86719C24.7708 8.15104 23.7552 7.38932 22.6875 6.58203C21.6328 5.77474 20.6302 5.00651 19.6797 4.27734C18.7292 3.53516 17.8958 2.86458 17.1797 2.26562C16.4635 1.65365 15.9687 1.1849 15.6953 0.859375C15.6042 0.820313 15.5586 0.742188 15.5586 0.625C15.5586 0.494792 15.5911 0.384115 15.6562 0.292969C15.7344 0.201823 15.7995 0.130208 15.8516 0.078125C15.9557 0.0260417 16.0599 9.10654e-09 16.1641 0C16.1901 -2.27663e-09 16.2096 0.00651041 16.2227 0.0195312C16.2357 0.0325521 16.2747 0.0520833 16.3398 0.078125C17.668 1.10677 18.931 2.05078 20.1289 2.91016C21.3268 3.75651 22.5052 4.60937 23.6641 5.46875C24.8359 6.3151 26.0143 7.20703 27.1992 8.14453C28.3841 9.08203 29.6211 10.1497 30.9102 11.3477C31.2878 11.6471 31.5937 11.9076 31.8281 12.1289C32.0625 12.3372 32.1797 12.5065 32.1797 12.6367C32.1797 12.806 32.1341 12.9102 32.043 12.9492C30.7539 13.9648 29.4779 15.013 28.2148 16.0937C26.9648 17.1745 25.6823 18.2617 24.3672 19.3555C23.0521 20.4492 21.6849 21.5365 20.2656 22.6172C18.8594 23.6849 17.3555 24.7201 15.7539 25.7227C15.5716 25.8268 15.3828 25.7943 15.1875 25.625C15.0052 25.4427 14.849 25.2474 14.7188 25.0391C14.6536 24.9609 14.6146 24.8633 14.6016 24.7461C14.6016 24.6289 14.5951 24.4922 14.582 24.3359V24.0625C15.8841 23.112 17.1927 22.168 18.5078 21.2305C19.8359 20.2799 21.1445 19.3099 22.4336 18.3203C23.7227 17.3307 24.9922 16.3151 26.2422 15.2734C27.4922 14.2318 28.7031 13.1445 29.875 12.0117Z" fill="#140F0F"/>
<path d="M29.0312 13.1836C29.1484 13.1836 29.2526 13.1445 29.3437 13.0664C29.4349 12.9753 29.4805 12.8255 29.4805 12.6172C29.4805 12.4089 29.4544 12.2656 29.4023 12.1875C29.3372 12.1094 29.2461 12.0703 29.1289 12.0703C27.8398 12.0703 26.5508 12.0898 25.2617 12.1289C23.9727 12.168 22.6771 12.1875 21.375 12.1875C20.7109 12.1875 20.0599 12.1745 19.4219 12.1484C18.7839 12.1224 18.1328 12.0964 17.4687 12.0703C17.3385 12.0703 17.2279 12.1029 17.1367 12.168C17.0456 12.2331 17 12.3698 17 12.5781C17 12.6953 17.0586 12.8255 17.1758 12.9688C17.293 13.112 17.3906 13.1836 17.4687 13.1836C18.7578 13.1836 20.0404 13.1771 21.3164 13.1641C22.5924 13.151 23.8815 13.1445 25.1836 13.1445C25.8346 13.1445 26.4792 13.1445 27.1172 13.1445C27.7422 13.1445 28.3802 13.1576 29.0312 13.1836Z" fill="#140F0F"/>
<path d="M18.0312 13.1836C18.1484 13.1836 18.2526 13.1445 18.3437 13.0664C18.4349 12.9753 18.4805 12.8255 18.4805 12.6172C18.4805 12.4089 18.4544 12.2656 18.4023 12.1875C18.3372 12.1094 18.2461 12.0703 18.1289 12.0703C16.8398 12.0703 15.5508 12.0898 14.2617 12.1289C12.9727 12.168 11.6771 12.1875 10.375 12.1875C9.71094 12.1875 9.05989 12.1745 8.42187 12.1484C7.78385 12.1224 7.13281 12.0964 6.46875 12.0703C6.33854 12.0703 6.22786 12.1029 6.13672 12.168C6.04557 12.2331 6 12.3698 6 12.5781C6 12.6953 6.05859 12.8255 6.17578 12.9688C6.29297 13.112 6.39062 13.1836 6.46875 13.1836C7.75781 13.1836 9.04036 13.1771 10.3164 13.1641C11.5924 13.151 12.8815 13.1445 14.1836 13.1445C14.8346 13.1445 15.4792 13.1445 16.1172 13.1445C16.7422 13.1445 17.3802 13.1576 18.0312 13.1836Z" fill="#140F0F"/>
<path d="M12.0312 13.1836C12.1484 13.1836 12.2526 13.1445 12.3437 13.0664C12.4349 12.9753 12.4805 12.8255 12.4805 12.6172C12.4805 12.4089 12.4544 12.2656 12.4023 12.1875C12.3372 12.1094 12.2461 12.0703 12.1289 12.0703C10.8398 12.0703 9.55078 12.0898 8.26172 12.1289C6.97265 12.168 5.67708 12.1875 4.375 12.1875C3.71094 12.1875 3.05989 12.1745 2.42187 12.1484C1.78385 12.1224 1.13281 12.0964 0.468748 12.0703C0.33854 12.0703 0.227861 12.1029 0.136715 12.168C0.0455691 12.2331 -3.8147e-06 12.3698 -3.8147e-06 12.5781C-3.8147e-06 12.6953 0.0585899 12.8255 0.175777 12.9688C0.292965 13.112 0.390623 13.1836 0.468748 13.1836C1.75781 13.1836 3.04036 13.1771 4.3164 13.1641C5.59245 13.151 6.88151 13.1445 8.18359 13.1445C8.83463 13.1445 9.47916 13.1445 10.1172 13.1445C10.7422 13.1445 11.3802 13.1576 12.0312 13.1836Z" fill="#140F0F"/>
</svg>
