<svg width="30" height="28" viewBox="0 0 30 28" fill="none" xmlns="http://www.w3.org/2000/svg">
<path d="M15 0C13.0302 0 11.0796 0.371111 9.25975 1.09214C7.43986 1.81318 5.78628 2.87001 4.3934 4.20231C1.58035 6.893 0 10.5424 0 14.3476C0 20.6892 4.305 26.0695 10.26 27.9778C11.01 28.0926 11.25 27.6478 11.25 27.2604V24.8357C7.095 25.6965 6.21 22.9131 6.21 22.9131C5.52 21.2488 4.545 20.804 4.545 20.804C3.18 19.9144 4.65 19.9431 4.65 19.9431C6.15 20.0436 6.945 21.4209 6.945 21.4209C8.25 23.6018 10.455 22.9561 11.31 22.6118C11.445 21.6792 11.835 21.0479 12.255 20.6892C8.925 20.3305 5.43 19.0966 5.43 13.6302C5.43 12.0376 6 10.7607 6.975 9.742C6.825 9.38332 6.3 7.89117 7.125 5.95424C7.125 5.95424 8.385 5.56686 11.25 7.4177C12.435 7.10205 13.725 6.94423 15 6.94423C16.275 6.94423 17.565 7.10205 18.75 7.4177C21.615 5.56686 22.875 5.95424 22.875 5.95424C23.7 7.89117 23.175 9.38332 23.025 9.742C24 10.7607 24.57 12.0376 24.57 13.6302C24.57 19.111 21.06 20.3162 17.715 20.6749C18.255 21.1196 18.75 21.9948 18.75 23.3292V27.2604C18.75 27.6478 18.99 28.1069 19.755 27.9778C25.71 26.0552 30 20.6892 30 14.3476C30 12.4634 29.612 10.5977 28.8582 8.857C28.1044 7.11627 26.9995 5.5346 25.6066 4.20231C24.2137 2.87001 22.5601 1.81318 20.7403 1.09214C18.9204 0.371111 16.9698 0 15 0Z" fill="white"/>
</svg>
