<svg width="9" height="9" viewBox="0 0 9 9" fill="none" xmlns="http://www.w3.org/2000/svg">
<path d="M0 1.125C0 0.826631 0.118526 0.540483 0.329505 0.329505C0.540483 0.118526 0.826631 0 1.125 0L5.0625 0C5.36087 0 5.64702 0.118526 5.85799 0.329505C6.06897 0.540483 6.1875 0.826631 6.1875 1.125V2.8125H7.875C8.17337 2.8125 8.45952 2.93103 8.67049 3.142C8.88147 3.35298 9 3.63913 9 3.9375V7.875C9 8.17337 8.88147 8.45952 8.67049 8.67049C8.45952 8.88147 8.17337 9 7.875 9H3.9375C3.63913 9 3.35298 8.88147 3.142 8.67049C2.93103 8.45952 2.8125 8.17337 2.8125 7.875V6.1875H1.125C0.826631 6.1875 0.540483 6.06897 0.329505 5.85799C0.118526 5.64702 0 5.36087 0 5.0625V1.125ZM1.125 0.5625C0.975816 0.5625 0.832742 0.621763 0.727252 0.727252C0.621763 0.832742 0.5625 0.975816 0.5625 1.125V5.0625C0.5625 5.21168 0.621763 5.35476 0.727252 5.46025C0.832742 5.56574 0.975816 5.625 1.125 5.625H5.0625C5.21168 5.625 5.35476 5.56574 5.46025 5.46025C5.56574 5.35476 5.625 5.21168 5.625 5.0625V1.125C5.625 0.975816 5.56574 0.832742 5.46025 0.727252C5.35476 0.621763 5.21168 0.5625 5.0625 0.5625H1.125ZM5.14012 6.18469C5.24869 6.354 5.36625 6.51262 5.4945 6.66056C5.07375 6.984 4.55344 7.22363 3.9375 7.38731C4.03763 7.50938 4.19119 7.7445 4.24969 7.875C4.8825 7.67306 5.41969 7.40025 5.87306 7.03462C6.31012 7.40869 6.85125 7.68994 7.52119 7.86262C7.596 7.71975 7.75406 7.48406 7.875 7.362C7.24219 7.21969 6.71794 6.97162 6.28875 6.63975C6.67181 6.21956 6.97612 5.71106 7.20056 5.08894H7.875V4.5H6.1875V5.08894H6.61781C6.43894 5.56369 6.20156 5.95856 5.90231 6.28706C5.81966 6.19901 5.74174 6.10663 5.66888 6.01031C5.51014 6.11209 5.32826 6.17207 5.14012 6.18469Z" fill="#140F0F"/>
<path d="M2.236 3.9712L1.888 5H1L2.4896 1H3.5168L5 5H4.0664L3.7184 3.9712H2.236ZM3.5432 3.3824L3 1.7648H2.9608L2.4176 3.3824H3.5432Z" fill="#140F0F"/>
</svg>
