<svg width="27" height="20" viewBox="0 0 27 20" fill="none" xmlns="http://www.w3.org/2000/svg">
<path d="M24.3 0H2.7C1.215 0 0.0135 1.125 0.0135 2.5L0 17.5C0 18.875 1.215 20 2.7 20H24.3C25.785 20 27 18.875 27 17.5V2.5C27 1.125 25.785 0 24.3 0ZM23.76 5.3125L14.2155 10.8375C13.7835 11.0875 13.2165 11.0875 12.7845 10.8375L3.24 5.3125C3.10463 5.24214 2.98609 5.14708 2.89155 5.03307C2.79701 4.91906 2.72843 4.78847 2.68998 4.64921C2.65152 4.50995 2.64398 4.36492 2.66781 4.22288C2.69164 4.08085 2.74635 3.94477 2.82863 3.82288C2.91091 3.70099 3.01904 3.59582 3.14648 3.51374C3.27392 3.43167 3.41803 3.37439 3.57007 3.34537C3.72211 3.31636 3.87893 3.31621 4.03104 3.34494C4.18315 3.37366 4.32738 3.43067 4.455 3.5125L13.5 8.75L22.545 3.5125C22.6726 3.43067 22.8169 3.37366 22.969 3.34494C23.1211 3.31621 23.2779 3.31636 23.4299 3.34537C23.582 3.37439 23.7261 3.43167 23.8535 3.51374C23.981 3.59582 24.0891 3.70099 24.1714 3.82288C24.2536 3.94477 24.3084 4.08085 24.3322 4.22288C24.356 4.36492 24.3485 4.50995 24.31 4.64921C24.2716 4.78847 24.203 4.91906 24.1085 5.03307C24.0139 5.14708 23.8954 5.24214 23.76 5.3125Z" fill="white"/>
</svg>
